TITLE ""
FILE "2Q_t_0635-0652.mp3" MP3
  TRACK 01 AUDIO
    TITLE "2Q_t_0635-0652_01"
    INDEX 01 00:00:00
  TRACK 02 AUDIO
    TITLE "2Q_t_0635-0652_02"
    INDEX 01 00:01:16
  TRACK 03 AUDIO
    TITLE "2Q_t_0635-0652_03"
    INDEX 01 00:01:61
  TRACK 04 AUDIO
    TITLE "2Q_t_0635-0652_04"
    INDEX 01 00:05:04
  TRACK 05 AUDIO
    TITLE "2Q_t_0635-0652_05"
    INDEX 01 00:05:49
  TRACK 06 AUDIO
    TITLE "2Q_t_0635-0652_06"
    INDEX 01 00:06:62
  TRACK 07 AUDIO
    TITLE "2Q_t_0635-0652_07"
    INDEX 01 00:07:34
  TRACK 08 AUDIO
    TITLE "2Q_t_0635-0652_08"
    INDEX 01 00:08:45
  TRACK 09 AUDIO
    TITLE "2Q_t_0635-0652_09"
    INDEX 01 00:09:15
  TRACK 10 AUDIO
    TITLE "2Q_t_0635-0652_10"
    INDEX 01 00:10:20
  TRACK 11 AUDIO
    TITLE "2Q_t_0635-0652_11"
    INDEX 01 00:10:69
  TRACK 12 AUDIO
    TITLE "2Q_t_0635-0652_12"
    INDEX 01 00:12:74
  TRACK 13 AUDIO
    TITLE "2Q_t_0635-0652_13"
    INDEX 01 00:13:44
  TRACK 14 AUDIO
    TITLE "2Q_t_0635-0652_14"
    INDEX 01 00:14:57
  TRACK 15 AUDIO
    TITLE "2Q_t_0635-0652_15"
    INDEX 01 00:15:29
  TRACK 16 AUDIO
    TITLE "2Q_t_0635-0652_16"
    INDEX 01 00:17:26
  TRACK 17 AUDIO
    TITLE "2Q_t_0635-0652_17"
    INDEX 01 00:17:71
  TRACK 18 AUDIO
    TITLE "2Q_t_0635-0652_18"
    INDEX 01 00:19:10
  TRACK 19 AUDIO
    TITLE "2Q_t_0635-0652_19"
    INDEX 01 00:19:63
  TRACK 20 AUDIO
    TITLE "2Q_t_0635-0652_20"
    INDEX 01 00:23:43
  TRACK 21 AUDIO
    TITLE "2Q_t_0635-0652_21"
    INDEX 01 00:24:13
  TRACK 22 AUDIO
    TITLE "2Q_t_0635-0652_22"
    INDEX 01 00:25:28
  TRACK 23 AUDIO
    TITLE "2Q_t_0635-0652_23"
    INDEX 01 00:26:06
  TRACK 24 AUDIO
    TITLE "2Q_t_0635-0652_24"
    INDEX 01 00:29:04
  TRACK 25 AUDIO
    TITLE "2Q_t_0635-0652_25"
    INDEX 01 00:29:49
  TRACK 26 AUDIO
    TITLE "2Q_t_0635-0652_26"
    INDEX 01 00:30:56
  TRACK 27 AUDIO
    TITLE "2Q_t_0635-0652_27"
    INDEX 01 00:31:28
  TRACK 28 AUDIO
    TITLE "2Q_t_0635-0652_28"
    INDEX 01 00:33:39
  TRACK 29 AUDIO
    TITLE "2Q_t_0635-0652_29"
    INDEX 01 00:34:11
  TRACK 30 AUDIO
    TITLE "2Q_t_0635-0652_30"
    INDEX 01 00:35:28
  TRACK 31 AUDIO
    TITLE "2Q_t_0635-0652_31"
    INDEX 01 00:36:04
  TRACK 32 AUDIO
    TITLE "2Q_t_0635-0652_32"
    INDEX 01 00:38:44
  TRACK 33 AUDIO
    TITLE "2Q_t_0635-0652_33"
    INDEX 01 00:39:12
  TRACK 34 AUDIO
    TITLE "2Q_t_0635-0652_34"
    INDEX 01 00:40:47
  TRACK 35 AUDIO
    TITLE "2Q_t_0635-0652_35"
    INDEX 01 00:41:21
  TRACK 36 AUDIO
    TITLE "2Q_t_0635-0652_36"
    INDEX 01 00:42:44
  TRACK 37 AUDIO
    TITLE "2Q_t_0635-0652_37"
    INDEX 01 00:43:18
  TRACK 38 AUDIO
    TITLE "2Q_t_0635-0652_38"
    INDEX 01 00:44:47
  TRACK 39 AUDIO
    TITLE "2Q_t_0635-0652_39"
    INDEX 01 00:45:21
  TRACK 40 AUDIO
    TITLE "2Q_t_0635-0652_40"
    INDEX 01 00:47:53
  TRACK 41 AUDIO
    TITLE "2Q_t_0635-0652_41"
    INDEX 01 00:48:23
  TRACK 42 AUDIO
    TITLE "2Q_t_0635-0652_42"
    INDEX 01 00:49:38
  TRACK 43 AUDIO
    TITLE "2Q_t_0635-0652_43"
    INDEX 01 00:50:08
  TRACK 44 AUDIO
    TITLE "2Q_t_0635-0652_44"
    INDEX 01 00:52:38
  TRACK 45 AUDIO
    TITLE "2Q_t_0635-0652_45"
    INDEX 01 00:53:09
  TRACK 46 AUDIO
    TITLE "2Q_t_0635-0652_46"
    INDEX 01 00:54:04
  TRACK 47 AUDIO
    TITLE "2Q_t_0635-0652_47"
    INDEX 01 00:54:53
  TRACK 48 AUDIO
    TITLE "2Q_t_0635-0652_48"
    INDEX 01 00:57:00
  TRACK 49 AUDIO
    TITLE "2Q_t_0635-0652_49"
    INDEX 01 00:57:46
  TRACK 50 AUDIO
    TITLE "2Q_t_0635-0652_50"
    INDEX 01 00:58:55
  TRACK 51 AUDIO
    TITLE "2Q_t_0635-0652_51"
    INDEX 01 00:59:25
  TRACK 52 AUDIO
    TITLE "2Q_t_0635-0652_52"
    INDEX 01 01:04:08
  TRACK 53 AUDIO
    TITLE "2Q_t_0635-0652_53"
    INDEX 01 01:04:51
  TRACK 54 AUDIO
    TITLE "2Q_t_0635-0652_54"
    INDEX 01 01:06:17
  TRACK 55 AUDIO
    TITLE "2Q_t_0635-0652_55"
    INDEX 01 01:06:72
  TRACK 56 AUDIO
    TITLE "2Q_t_0635-0652_56"
    INDEX 01 01:09:55
  TRACK 57 AUDIO
    TITLE "2Q_t_0635-0652_57"
    INDEX 01 01:10:25
  TRACK 58 AUDIO
    TITLE "2Q_t_0635-0652_58"
    INDEX 01 01:11:59
  TRACK 59 AUDIO
    TITLE "2Q_t_0635-0652_59"
    INDEX 01 01:12:33
  TRACK 60 AUDIO
    TITLE "2Q_t_0635-0652_60"
    INDEX 01 01:15:14
  TRACK 61 AUDIO
    TITLE "2Q_t_0635-0652_61"
    INDEX 01 01:15:59
  TRACK 62 AUDIO
    TITLE "2Q_t_0635-0652_62"
    INDEX 01 01:16:62
  TRACK 63 AUDIO
    TITLE "2Q_t_0635-0652_63"
    INDEX 01 01:17:42
  TRACK 64 AUDIO
    TITLE "2Q_t_0635-0652_64"
    INDEX 01 01:18:50
  TRACK 65 AUDIO
    TITLE "2Q_t_0635-0652_65"
    INDEX 01 01:19:20
  TRACK 66 AUDIO
    TITLE "2Q_t_0635-0652_66"
    INDEX 01 01:20:41
  TRACK 67 AUDIO
    TITLE "2Q_t_0635-0652_67"
    INDEX 01 01:21:13
  TRACK 68 AUDIO
    TITLE "2Q_t_0635-0652_68"
    INDEX 01 01:22:40
  TRACK 69 AUDIO
    TITLE "2Q_t_0635-0652_69"
    INDEX 01 01:23:10
  TRACK 70 AUDIO
    TITLE "2Q_t_0635-0652_70"
    INDEX 01 01:23:72
  TRACK 71 AUDIO
    TITLE "2Q_t_0635-0652_71"
    INDEX 01 01:24:54
  TRACK 72 AUDIO
    TITLE "2Q_t_0635-0652_72"
    INDEX 01 01:27:11
